Coordinates
version=1
nRows=38
nColumns=12
inDegrees=yes

Units are S.I. units (second, meters, Newtons, ...)
Angles are in degrees

endheader
time	SC_y	SC_z	SC_x	AC_y	AC_z	AC_x	GH_y	GH_z	GH_yy	EL_x	PS_y
       0.0              -21.43          25.42          49.53          60.53         -16.92          4.787         -119.6          8.099         -74.73          52.04          10.19
   0.01691              -21.43          25.42          49.53          60.53         -16.92          4.786         -119.6          8.107         -74.75          52.05           10.2
   0.03381              -21.44          25.42          49.53          60.53         -16.92          4.784         -119.6          8.116         -74.76          52.06          10.21
   0.05072              -21.44          25.42          49.53          60.53         -16.91          4.783         -119.6          8.125         -74.78          52.07          10.23
   0.06763              -21.44          25.42          49.53          60.53         -16.91          4.781         -119.6          8.134          -74.8          52.09          10.24
   0.08453              -21.44          25.42          49.54          60.53         -16.91          4.779         -119.6          8.144         -74.82           52.1          10.26
    0.1014              -21.45          25.42          49.54          60.53          -16.9          4.778         -119.6          8.155         -74.84          52.11          10.27
    0.1183              -21.45          25.42          49.54          60.53          -16.9          4.776         -119.6          8.167         -74.86          52.13          10.29
    0.1353              -21.45          25.42          49.54          60.52          -16.9          4.774         -119.6           8.18         -74.88          52.14          10.31
    0.1522              -21.45          25.42          49.54          60.52         -16.89          4.771         -119.6          8.193         -74.91          52.16          10.33
    0.1691              -21.46          25.42          49.54          60.52         -16.89          4.769         -119.6          8.208         -74.93          52.18          10.35
     0.186              -21.46          25.42          49.54          60.52         -16.88          4.766         -119.6          8.223         -74.96           52.2          10.38
    0.2029              -21.47          25.42          49.54          60.52         -16.88          4.764         -119.6           8.24         -74.99          52.22           10.4
    0.2198              -21.47          25.42          49.55          60.52         -16.87          4.761         -119.6          8.258         -75.03          52.24          10.43
    0.2367              -21.47          25.42          49.55          60.52         -16.86          4.757         -119.5          8.278         -75.06          52.27          10.46
    0.2536              -21.48          25.42          49.55          60.52         -16.86          4.754         -119.5          8.299          -75.1          52.29          10.49
    0.2705              -21.48          25.42          49.55          60.52         -16.85           4.75         -119.5          8.322         -75.15          52.32          10.52
    0.2874              -21.49          25.42          49.55          60.52         -16.84          4.746         -119.5          8.347         -75.19          52.36          10.56
    0.3043               -21.5          25.42          49.56          60.52         -16.83          4.741         -119.5          8.375         -75.24          52.39           10.6
    0.3212               -21.5          25.42          49.56          60.51         -16.82          4.736         -119.5          8.405          -75.3          52.43          10.65
    0.3381              -21.51          25.42          49.56          60.51         -16.81          4.731         -119.5          8.438         -75.36          52.47           10.7
     0.355              -21.52          25.42          49.56          60.51          -16.8          4.725         -119.5          8.474         -75.43          52.52          10.75
    0.3719              -21.53          25.42          49.57          60.51         -16.79          4.718         -119.5          8.515          -75.5          52.57          10.81
    0.3889              -21.54          25.42          49.57          60.51         -16.77          4.711         -119.5          8.559         -75.59          52.62          10.88
    0.4058              -21.55          25.43          49.58          60.51         -16.76          4.702         -119.4          8.609         -75.68          52.68          10.95
    0.4227              -21.56          25.43          49.58           60.5         -16.74          4.693         -119.4          8.664         -75.78          52.75          11.03
    0.4396              -21.58          25.43          49.59           60.5         -16.72          4.683         -119.4          8.726         -75.89          52.83          11.13
    0.4565               -21.6          25.43          49.59           60.5          -16.7          4.672         -119.4          8.795         -76.02          52.92          11.23
    0.4734              -21.61          25.43           49.6          60.49         -16.67          4.659         -119.4          8.874         -76.17          53.02          11.35
    0.4903              -21.63          25.43          49.61          60.49         -16.64          4.644         -119.3          8.963         -76.34          53.13          11.48
    0.5072              -21.66          25.43          49.61          60.49         -16.61          4.627         -119.3          9.065         -76.52          53.26          11.63
    0.5241              -21.69          25.43          49.62          60.48         -16.57          4.607         -119.3          9.182         -76.74          53.41          11.81
     0.541              -21.72          25.44          49.64          60.47         -16.53          4.585         -119.2          9.317         -76.99          53.58          12.01
    0.5579              -21.75          25.44          49.65          60.47         -16.48          4.559         -119.2          9.474         -77.28          53.78          12.24
    0.5748               -21.8          25.44          49.66          60.46         -16.42          4.529         -119.1          9.658         -77.62          54.01          12.52
    0.5917              -21.85          25.44          49.68          60.45         -16.35          4.493         -119.1          9.874         -78.03          54.28          12.84
    0.6086              -21.91          25.45          49.71          60.44         -16.27           4.45         -119.0          10.13          -78.5           54.6          13.22
    0.6255              -21.98          25.45          49.73          60.42         -16.17          4.399         -118.9          10.44         -79.07          54.99          13.68
